<?xml version="1.0"?>
<svg xmlns="http://www.w3.org/2000/svg" id="line" viewBox="0 0 64 64" width="512" height="512"><path d="M9,55c0,4.6,11.57,7,23,7s23-2.4,23-7V47.816A3,3,0,0,0,57,45V43a3,3,0,0,0-2-2.816V30c0-4.6-11.57-7-23-7S9,25.4,9,30V40.184A3,3,0,0,0,7,43v2a3,3,0,0,0,2,2.816Zm23,5c-12.819,0-21-2.961-21-5v-.959C14.8,56.65,23.437,58,32,58s17.2-1.35,21-3.959V55C53,57.039,44.819,60,32,60ZM22,45a1,1,0,0,1,1,1v2a1,1,0,0,1-2,0V46A1,1,0,0,1,22,45Zm1,5.816A3,3,0,0,0,25,48V46a3,3,0,0,0-2-2.816v-2.7A76.733,76.733,0,0,0,32,41a76.733,76.733,0,0,0,9-.517v2.7A3,3,0,0,0,39,46v2a3,3,0,0,0,2,2.816v4.647A72.367,72.367,0,0,1,32,56a72.367,72.367,0,0,1-9-.537ZM42,49a1,1,0,0,1-1-1V46a1,1,0,0,1,2,0v2A1,1,0,0,1,42,49Zm1,6.174V50.816A3,3,0,0,0,45,48V46a3,3,0,0,0-2-2.816V40.211c4.268-.656,7.886-1.717,10-3.17v3.143A3,3,0,0,0,51,43v2a3,3,0,0,0,2,2.816V51C53,52.368,49.3,54.149,43,55.174ZM55,45a1,1,0,0,1-2,0V43a1,1,0,0,1,2,0ZM32,25c12.819,0,21,2.961,21,5s-8.181,5-21,5-21-2.961-21-5S19.181,25,32,25ZM11,33.041C14.8,35.65,23.437,37,32,37s17.2-1.35,21-3.959V34c0,2.039-8.181,5-21,5s-21-2.961-21-5ZM9,43a1,1,0,0,1,2,0v2a1,1,0,0,1-2,0Zm2,4.816A3,3,0,0,0,13,45V43a3,3,0,0,0-2-2.816V37.041c2.114,1.453,5.732,2.514,10,3.17v2.973A3,3,0,0,0,19,46v2a3,3,0,0,0,2,2.816v4.358C14.7,54.149,11,52.368,11,51Z"/><path d="M58.086,2.914a3.138,3.138,0,0,0-4.464.054L41.583,16.933a1.762,1.762,0,0,0,2.484,2.484L58.086,7.328A3.125,3.125,0,0,0,58.086,2.914Zm-1.36,2.95L45.2,15.8,55.086,4.328a1.124,1.124,0,0,1,1.64,1.536Z"/><path d="M5.968,7.378,19.933,19.417a1.761,1.761,0,0,0,2.484-2.484L10.328,2.914a3.12,3.12,0,1,0-4.36,4.464Zm1.36-3.049a1.153,1.153,0,0,1,.815-.336,1.022,1.022,0,0,1,.721.281L18.8,15.8,7.328,5.914A1.122,1.122,0,0,1,7.328,4.329Z"/><rect x="31" y="13" width="2" height="4"/><rect x="35.379" y="15.5" width="4.243" height="2" transform="translate(-0.684 31.349) rotate(-45)"/><rect x="25.5" y="14.379" width="2" height="4.243" transform="translate(-3.906 23.571) rotate(-45)"/></svg>
