<svg xmlns="http://www.w3.org/2000/svg" xmlns:xlink="http://www.w3.org/1999/xlink" height="36" width="61.40926021895689">
  <defs>
    <linearGradient id="linearGradient-2" x1="0.55" y1="-0.05" x2="0.55" y2="1.01">
      <stop offset="0" stop-color="rgb(86,251,181)" stop-opacity="1"/>
      <stop offset="0.4" stop-color="rgb(23,214,189)" stop-opacity="1"/>
      <stop offset="1" stop-color="rgb(5,104,164)" stop-opacity="1"/>
    </linearGradient>
    <linearGradient id="linearGradient-4" x1="0.55" y1="-0.05" x2="0.55" y2="1.01">
      <stop offset="0" stop-color="rgb(86,251,181)" stop-opacity="1"/>
      <stop offset="0.4" stop-color="rgb(23,214,189)" stop-opacity="1"/>
      <stop offset="1" stop-color="rgb(5,104,164)" stop-opacity="1"/>
    </linearGradient>
  </defs>
  <g opacity="1">
    <g opacity="1">
      <path fill="url(#linearGradient-2)" fill-opacity="1" opacity="1" fill-rule="evenodd" d="M24.704630109478444 36L20.704630109478444 36L20.704630109478444 3.552713678800501e-15L24.704630109478444 3.552713678800501e-15L24.704630109478444 36ZM12.704630109478444 30.000000000000004L16.704630109478444 30.000000000000004L16.704630109478444 6.0000000000000036L12.704630109478444 6.0000000000000036L12.704630109478444 30.000000000000004ZM4.704630109478444 12.000000000000004L8.704630109478444 12.000000000000004L8.704630109478444 24.000000000000004L4.704630109478444 24.000000000000004L4.704630109478444 12.000000000000004Z"/>
    </g>
    <g opacity="1">
      <path fill="url(#linearGradient-4)" fill-opacity="1" opacity="1" fill-rule="evenodd" d="M48.704630109478444 36L44.704630109478444 36L44.704630109478444 3.552713678800501e-15L48.704630109478444 3.552713678800501e-15L48.704630109478444 36ZM36.704630109478444 30.000000000000004L40.704630109478444 30.000000000000004L40.704630109478444 6.0000000000000036L36.704630109478444 6.0000000000000036L36.704630109478444 30.000000000000004ZM32.704630109478444 12.000000000000004L28.704630109478444 12.000000000000004L28.704630109478444 24.000000000000004L32.704630109478444 24.000000000000004L32.704630109478444 12.000000000000004ZM56.704630109478444 12.000000000000004L52.704630109478444 12.000000000000004L52.704630109478444 24.000000000000004L56.704630109478444 24.000000000000004L56.704630109478444 12.000000000000004Z"/>
    </g>
    <g opacity="1">
      <path fill-opacity="0" stroke="rgb(255,255,255)" stroke-opacity="1" stroke-width="2" stroke-linecap="butt" stroke-linejoin="miter" opacity="1" fill-rule="evenodd" d="M4.704630109478444 18.000000000000007L10.702563137010001 18.000000000000007L14.704630109478444 21.000000000000004L18.70183840368698 18.000000000000007L22.704630109478444 15.000000000000004L26.705124840632912 18.000000000000007L30.704630109478444 21.000000000000004L34.70551079862748 18.000000000000007L38.704630109478444 15.000000000000004L42.70449491672501 18.000000000000007L46.704630109478444 21.000000000000004L50.70414941353556 18.000000000000007L56.704630109478444 18.000000000000007"/>
    </g>
  </g>
</svg>